<svg version="1.1" id="Layer_1" xmlns="http://www.w3.org/2000/svg" xmlns:xlink="http://www.w3.org/1999/xlink" x="0px" y="0px"
	 width="100%" viewBox="0 0 1215 461" enable-background="new 0 0 1215 461" xml:space="preserve">
<path fill="#FEFFFF" opacity="1.000000" stroke="none" 
	d="
M903.000000,462.000000 
	C602.000061,462.000000 301.500061,462.000000 1.000081,462.000000 
	C1.000054,308.333374 1.000054,154.666779 1.000027,1.000122 
	C405.999878,1.000081 810.999756,1.000081 1215.999756,1.000041 
	C1215.999756,154.666550 1215.999756,308.333099 1215.999878,461.999817 
	C1111.833374,462.000000 1007.666687,462.000000 903.000000,462.000000 
M53.690742,97.235176 
	C53.459408,97.417938 53.448246,97.613075 53.342842,98.519882 
	C53.266056,99.022957 53.189270,99.526031 52.767357,100.725166 
	C52.152916,105.980377 51.010700,111.234825 51.003082,116.490913 
	C50.886143,197.177032 50.915340,277.863373 50.924313,358.549652 
	C50.924515,360.372833 51.085361,362.196045 51.109154,364.857758 
	C51.310307,366.223022 51.511456,367.588257 51.584805,369.557007 
	C51.773632,370.361237 51.962460,371.165497 52.158318,372.672821 
	C52.317776,373.109344 52.477234,373.545898 52.580894,374.692596 
	C53.683746,377.802582 54.786598,380.912567 56.002758,384.736786 
	C59.144524,389.859314 62.286293,394.981842 65.397301,400.402252 
	C65.397301,400.402252 65.611473,400.609161 65.611473,400.609161 
	C65.611473,400.609161 65.906540,400.565430 66.304733,400.905121 
	C66.459518,400.985596 66.614304,401.066101 66.969856,401.793793 
	C72.443855,408.196747 78.936005,413.170105 86.968979,416.046967 
	C86.968979,416.046967 87.008492,416.051239 87.359436,416.501648 
	C87.894775,416.652222 88.430107,416.802795 89.468071,417.167419 
	C89.828171,417.205322 90.188263,417.243256 91.075508,417.802826 
	C94.387772,418.700043 97.700035,419.597229 101.650291,420.747375 
	C102.104858,420.780823 102.559425,420.814240 103.815285,421.086487 
	C114.937065,421.416321 126.058563,422.021149 137.180664,422.032166 
	C221.540756,422.115906 305.900970,422.086975 390.261139,422.068115 
	C392.573608,422.067596 394.885986,421.785675 398.108795,421.662689 
	C400.774261,421.678711 403.439697,421.708801 406.105164,421.708832 
	C643.360657,421.710785 880.616089,421.710388 1117.871582,421.709961 
	C1121.037231,421.709961 1124.204834,421.781891 1127.368042,421.693207 
	C1145.489380,421.185150 1161.541138,408.998596 1165.666504,392.486847 
	C1166.133667,388.038666 1167.004517,383.590851 1167.008545,379.142273 
	C1167.091797,286.754852 1167.077759,194.367279 1167.072510,101.979759 
	C1167.072388,100.320503 1166.945312,98.661240 1167.010864,96.338020 
	C1166.960938,95.891945 1166.911011,95.445869 1167.001831,94.138603 
	C1166.386108,90.736565 1165.770264,87.334526 1165.155151,83.217735 
	C1164.785400,82.141785 1164.415771,81.065834 1164.052002,79.346512 
	C1163.731567,78.813164 1163.411011,78.279808 1163.070801,77.206345 
	C1162.773438,76.782036 1162.476196,76.357719 1162.048340,75.242546 
	C1159.472534,72.048759 1156.896729,68.854973 1154.211182,65.737457 
	C1154.211182,65.737457 1154.334351,65.789314 1154.136597,65.223839 
	C1153.794067,65.027702 1153.451416,64.831566 1152.834473,64.036911 
	C1147.070435,59.159569 1140.540527,55.998375 1132.069214,54.971916 
	C1128.378906,54.958782 1124.688599,54.945648 1120.351685,54.723610 
	C1119.908691,54.788944 1119.465576,54.854275 1118.099609,54.717426 
	C1117.600098,54.703335 1117.100708,54.676899 1116.601196,54.676895 
	C879.222473,54.674091 641.843750,54.672554 404.464996,54.683941 
	C402.975006,54.684013 401.485046,54.864174 399.256409,54.750763 
	C398.490967,54.718048 397.725494,54.685333 396.290314,54.194660 
	C395.963135,54.134941 395.635925,54.022728 395.308777,54.022915 
	C300.816101,54.077370 206.323380,54.115421 111.830894,54.280506 
	C107.575279,54.287941 103.321686,55.447651 98.356499,56.061443 
	C97.903885,56.186714 97.451279,56.311985 96.280853,56.351089 
	C89.830475,59.538189 83.380089,62.725285 76.953316,65.997902 
	C76.953316,65.997902 76.913506,65.913826 76.269196,66.032127 
	C75.079193,67.197098 73.889191,68.362068 72.683510,69.607574 
	C72.683510,69.607574 72.621445,69.661209 71.962593,69.749252 
	C69.949432,71.797775 67.936272,73.846298 65.463547,76.164314 
	C65.217300,76.629082 64.971062,77.093842 64.121719,77.853104 
	C63.311634,79.099754 62.501545,80.346405 61.659000,81.674622 
	C61.659000,81.674622 61.599236,81.738937 61.060600,81.962929 
	C60.726654,82.633163 60.392708,83.303398 59.856152,84.305382 
	C59.856152,84.305382 59.763004,84.682785 59.255093,85.060341 
	C59.020130,85.641434 58.785168,86.222527 58.236729,87.110672 
	C58.064762,87.354950 57.958138,87.625023 57.424534,88.268532 
	C57.256626,88.833076 57.088722,89.397614 56.759789,90.264648 
	C56.759789,90.264648 56.736988,90.606575 56.205441,91.077904 
	C55.482121,93.046875 54.758804,95.015839 53.972965,97.012245 
	C53.972965,97.012245 53.994648,97.076996 53.690742,97.235176 
z"/>
<path fill="#41677E" opacity="1.000000" stroke="none" 
	d="
M396.960052,54.652618 
	C397.725494,54.685333 398.490967,54.718048 399.912720,55.161659 
	C402.044281,55.715645 403.519531,55.983986 404.994812,55.984100 
	C641.290833,56.002609 877.586914,56.004116 1113.882935,55.957119 
	C1115.596313,55.956779 1117.309326,55.280357 1119.022583,54.919613 
	C1119.465576,54.854275 1119.908691,54.788944 1120.753906,55.220760 
	C1125.225830,58.384621 1129.111084,57.072704 1132.969116,55.170376 
	C1140.540527,55.998375 1147.070435,59.159569 1153.058350,64.633850 
	C1153.632812,65.416977 1153.983643,65.603165 1154.334351,65.789337 
	C1154.334351,65.789314 1154.211182,65.737457 1154.172119,66.057693 
	C1155.153198,70.962288 1158.367310,73.699387 1162.178955,75.933395 
	C1162.476196,76.357719 1162.773438,76.782036 1163.071899,77.806290 
	C1163.397339,78.934128 1163.721680,79.462029 1164.046143,79.989906 
	C1164.415771,81.065834 1164.785400,82.141785 1164.846924,83.821060 
	C1165.312744,87.949532 1166.086914,91.474663 1166.861084,94.999802 
	C1166.911011,95.445869 1166.960938,95.891945 1166.557007,96.770752 
	C1165.740479,97.893112 1165.145386,98.556496 1165.063843,99.277885 
	C1164.896851,100.758568 1165.000610,102.270294 1165.000610,103.769249 
	C1165.000610,197.039551 1164.999878,290.309875 1165.008057,383.580170 
	C1165.008301,386.739136 1165.097290,389.898071 1165.145020,393.057037 
	C1161.541138,408.998596 1145.489380,421.185150 1127.368042,421.693207 
	C1124.204834,421.781891 1121.037231,421.709961 1117.871582,421.709961 
	C880.616089,421.710388 643.360657,421.710785 406.105164,421.708832 
	C403.439697,421.708801 400.774261,421.678711 397.606750,421.317719 
	C397.002625,420.311584 396.900574,419.650452 396.880707,418.998016 
	C396.962860,419.006744 397.126678,419.028503 397.467224,418.944702 
	C397.872406,416.194550 397.993317,413.528198 397.993530,410.861816 
	C398.003143,296.668091 397.995972,182.474365 398.032532,68.280640 
	C398.033569,64.988380 398.599152,61.697750 398.641418,58.403015 
	C398.651642,57.605328 397.625977,56.794361 397.052826,55.654816 
	C397.006042,55.097626 396.983032,54.875122 396.960052,54.652618 
M951.228760,281.679657 
	C960.087158,273.985138 970.144287,271.411011 981.407410,275.077972 
	C987.742371,277.140503 990.499390,281.872803 989.213318,287.285583 
	C983.914490,286.708771 978.640259,285.819946 973.340088,285.621063 
	C961.056946,285.160004 949.407410,287.426208 939.562195,295.385956 
	C924.788208,307.330658 925.509827,329.030121 940.936096,340.023743 
	C953.285400,348.824554 976.803894,350.806274 989.591858,337.877411 
	C989.985596,337.479279 990.611816,337.311096 991.548706,336.812866 
	C991.716614,339.714813 991.855774,342.120422 992.004700,344.694489 
	C1002.274780,344.694489 1012.335876,344.694489 1022.115417,344.694489 
	C1022.115417,322.602905 1022.841919,300.791718 1021.855164,279.058350 
	C1021.217834,265.020020 1012.774963,254.678589 999.776428,249.381348 
	C980.044983,241.340240 960.731323,242.692688 942.562317,254.439407 
	C939.949707,256.128540 937.496155,258.063629 934.500977,260.222260 
	C934.694092,256.162659 935.080566,252.733231 934.898438,249.334305 
	C934.834229,248.135910 933.621338,246.368515 932.521118,245.954102 
	C921.993896,241.988617 908.386292,245.644150 901.080505,254.151093 
	C900.204956,255.170624 899.244629,256.117401 897.457458,258.019958 
	C897.258301,254.424240 897.483154,252.050278 896.877502,249.911469 
	C896.501099,248.582123 894.894592,246.657745 893.793030,246.625763 
	C884.672974,246.360962 875.541931,246.475845 866.210266,246.475845 
	C866.210266,279.536377 866.210266,312.082947 866.210266,344.685425 
	C877.068054,344.685425 887.629883,344.685425 898.618408,344.685425 
	C898.618408,342.575073 898.612000,340.768372 898.619385,338.961731 
	C898.681030,323.799652 898.427856,308.627533 898.906311,293.478577 
	C899.310120,280.698608 907.834778,272.931366 920.608459,273.069000 
	C924.687012,273.112946 928.756287,274.017578 932.975647,274.546661 
	C933.363220,273.123688 933.769043,271.633789 934.346863,269.512238 
	C938.519958,273.965973 942.341309,277.869110 945.943298,281.965210 
	C947.652710,283.909149 949.024963,284.237488 951.228760,281.679657 
M508.935120,250.474319 
	C491.023346,241.375092 473.848206,242.413116 456.714539,255.006592 
	C456.714539,236.573547 456.714539,218.918503 456.714539,201.425415 
	C445.746796,201.425415 435.524597,201.425415 425.375671,201.425415 
	C425.375671,249.438278 425.375671,296.989288 425.375671,344.664337 
	C435.997986,344.664337 446.238586,344.664337 456.612946,344.664337 
	C456.894928,342.482483 457.135651,340.619659 457.280975,339.494995 
	C464.406372,341.901245 471.098358,345.228363 478.137848,346.325409 
	C494.943298,348.944366 509.694397,344.576141 520.859863,330.830292 
	C529.985107,319.596222 532.607788,306.470093 531.949890,292.517059 
	C531.131165,275.152802 524.789124,260.567047 508.935120,250.474319 
M808.944702,259.444672 
	C803.395020,264.992981 797.845398,270.541290 792.295715,276.089600 
	C791.815247,275.841003 791.334839,275.592438 790.854370,275.343872 
	C790.854370,250.657974 790.854370,225.972061 790.854370,201.361038 
	C779.860413,201.361038 769.613342,201.361038 759.247009,201.361038 
	C759.247009,249.322769 759.247009,296.886108 759.247009,344.562469 
	C769.976501,344.562469 780.343079,344.562469 791.055115,344.562469 
	C791.055115,337.472351 791.630554,330.757385 790.906067,324.185699 
	C790.045654,316.380402 795.101074,313.059235 800.173584,308.850037 
	C808.027466,319.935455 815.671204,330.588287 823.138123,341.363556 
	C824.904602,343.912659 826.713562,345.168060 830.019104,345.084259 
	C840.012024,344.830963 850.015686,345.010895 860.014954,344.986542 
	C861.564758,344.982758 863.114075,344.792877 865.244385,344.650146 
	C864.346130,343.295013 863.944458,342.594147 863.453735,341.962494 
	C850.611755,325.431519 837.785278,308.888367 824.887451,292.401062 
	C822.664307,289.559174 822.625793,287.489014 825.429565,284.780518 
	C836.806641,273.790161 847.953613,262.561493 859.169128,251.404312 
	C860.376038,250.203751 861.476624,248.896393 863.318726,246.881424 
	C854.285583,246.881424 846.382446,247.635483 838.681396,246.709274 
	C826.326965,245.223450 816.594238,248.653793 808.944702,259.444672 
M1025.962402,246.472870 
	C1025.294922,247.045486 1024.055420,247.609329 1024.046387,248.192078 
	C1023.919861,256.443268 1023.960205,264.696991 1023.960205,273.416321 
	C1029.433838,273.416321 1034.192993,273.416321 1039.343750,273.416321 
	C1039.343750,286.039612 1039.166016,298.182770 1039.391235,310.318451 
	C1039.642334,323.847748 1043.458984,335.940674 1056.546875,342.378723 
	C1071.331055,349.651184 1086.558960,347.954376 1101.592651,342.694641 
	C1102.778687,342.279724 1104.478638,340.719086 1104.423218,339.780396 
	C1103.939209,331.574677 1103.109375,323.389282 1102.430420,315.741943 
	C1096.097778,316.593597 1090.404419,317.873352 1084.684937,318.004517 
	C1076.675537,318.188232 1072.420532,313.774200 1072.133301,305.667114 
	C1071.897583,299.013214 1072.065063,292.344940 1072.057983,285.683044 
	C1072.053711,281.599823 1072.057129,277.516602 1072.057129,273.013611 
	C1082.086548,273.013611 1091.337769,273.013611 1100.710205,273.013611 
	C1100.710205,264.015686 1100.710205,255.457275 1100.710205,246.249191 
	C1090.718872,246.249191 1081.010498,246.249191 1070.876709,246.249191 
	C1070.876709,235.521576 1070.876709,225.439499 1070.876709,215.327026 
	C1060.197510,215.327026 1049.979614,215.327026 1039.239502,215.327026 
	C1039.239502,225.728149 1039.239502,235.810501 1039.239502,246.451553 
	C1034.778687,246.451553 1030.829224,246.451553 1025.962402,246.472870 
M690.599426,345.061981 
	C716.661621,352.008148 742.407654,340.481110 752.001587,320.801208 
	C744.987427,315.651886 737.864807,310.516327 730.857605,305.227692 
	C728.430847,303.396118 727.317749,304.309753 725.705322,306.421265 
	C720.790710,312.857330 714.918518,317.447266 706.030090,317.147461 
	C696.936340,316.840790 691.070190,312.309937 687.448242,304.507019 
	C684.114990,297.325928 686.356750,286.087616 691.782471,280.762421 
	C697.844910,274.812347 706.705383,273.170563 714.414490,276.064758 
	C720.597229,278.385895 724.442810,282.839783 727.152710,289.065948 
	C735.263733,283.352478 743.016785,278.002045 750.572632,272.386200 
	C751.278442,271.861603 751.364807,269.090240 750.673401,268.326477 
	C745.920044,263.075287 741.595642,256.998169 735.813293,253.192245 
	C711.294006,237.054016 672.787170,243.527054 659.031799,272.602020 
	C650.706421,290.199554 651.769775,307.707581 661.930847,324.447327 
	C668.382019,335.075256 678.129517,341.323090 690.599426,345.061981 
M608.852356,263.143982 
	C608.948364,258.984802 608.613953,254.756470 609.267639,250.686874 
	C609.860718,246.994278 608.207581,245.633545 605.243774,245.347672 
	C597.104187,244.562622 588.797302,243.731369 581.640869,248.870956 
	C578.134216,251.389328 575.197266,254.701065 572.291138,257.386993 
	C571.774170,254.257584 571.189392,250.717804 570.554993,246.877441 
	C561.816162,246.877441 553.508118,247.103333 545.221069,246.784531 
	C540.917053,246.618942 539.971436,248.203690 539.991821,252.219757 
	C540.139709,281.343109 540.064514,310.467621 540.078735,339.591736 
	C540.079529,341.206787 540.249023,342.821777 540.345703,344.537659 
	C551.396240,344.537659 562.063599,344.537659 573.023804,344.537659 
	C573.023804,327.936127 572.946533,311.801483 573.046936,295.667999 
	C573.135742,281.400146 582.034424,272.739166 596.320740,273.068176 
	C600.052856,273.154175 603.767151,274.013336 607.594666,274.531616 
	C607.987244,270.939880 608.363159,267.500641 608.852356,263.143982 
M645.943970,267.500153 
	C645.944031,265.834290 645.992432,264.166779 645.934937,262.502899 
	C645.763733,257.551270 647.429993,250.478134 644.862671,248.205780 
	C641.880493,245.566208 635.173950,247.028152 630.079285,246.910141 
	C624.505554,246.781036 618.926575,246.880753 613.343262,246.880753 
	C613.343262,280.041504 613.343262,312.269897 613.343262,344.663940 
	C624.260010,344.663940 634.818359,344.663940 645.943787,344.663940 
	C645.943787,319.050842 645.943787,293.775482 645.943970,267.500153 
M622.460266,233.603958 
	C624.765686,233.775940 627.068542,234.040161 629.376953,234.102859 
	C636.740601,234.302811 642.246155,231.246277 645.245422,224.410034 
	C648.359985,217.311050 646.791565,208.192871 641.911499,203.561844 
	C637.417175,199.296860 627.526672,197.644531 621.785400,200.017151 
	C614.664673,202.959854 611.303711,208.453644 611.061646,215.876007 
	C610.799927,223.898315 614.060669,229.982880 622.460266,233.603958 
z"/>
<path fill="#57B2CD" opacity="1.000000" stroke="none" 
	d="
M57.916855,87.920891 
	C57.958138,87.625023 58.064762,87.354950 58.737610,86.863358 
	C59.413326,85.971619 59.588169,85.327202 59.763008,84.682785 
	C59.763004,84.682785 59.856152,84.305382 60.286175,84.092560 
	C61.010544,83.166130 61.304890,82.452538 61.599236,81.738937 
	C61.599236,81.738937 61.659000,81.674622 62.068512,81.727303 
	C63.226955,80.372856 63.975883,78.965736 64.724815,77.558609 
	C64.971062,77.093842 65.217300,76.629082 66.040054,76.033882 
	C68.618187,73.822708 70.619820,71.741959 72.621445,69.661209 
	C72.621445,69.661209 72.683510,69.607574 73.046921,69.695786 
	C74.578049,68.493942 75.745781,67.203888 76.913506,65.913826 
	C76.913506,65.913826 76.953316,65.997902 77.318848,65.982834 
	C81.934044,63.990711 86.207436,62.062527 90.423798,60.016796 
	C92.666405,58.928703 94.810242,57.637032 96.998665,56.437252 
	C97.451279,56.311985 97.903885,56.186714 98.972725,56.333786 
	C104.520126,56.392567 109.451218,55.994781 114.382477,55.992760 
	C205.238251,55.955471 296.094025,55.964897 386.949799,55.966560 
	C394.818268,55.966702 394.818268,55.973553 396.903564,63.417023 
	C396.971893,179.939148 396.984436,295.989929 397.003815,412.040710 
	C397.004181,414.369965 397.083954,416.699249 397.126678,419.028503 
	C397.126678,419.028503 396.962860,419.006744 396.486664,419.072327 
	C393.725830,419.435242 391.441345,419.991547 389.156555,419.992615 
	C295.533020,420.036682 201.909485,420.026337 108.285950,420.065277 
	C106.528519,420.066010 104.771309,420.575562 103.013992,420.847687 
	C102.559425,420.814240 102.104858,420.780823 101.212906,420.316376 
	C97.366463,419.017303 93.957413,418.149231 90.548363,417.281158 
	C90.188263,417.243256 89.828171,417.205322 89.053551,416.822327 
	C88.095520,416.335205 87.552010,416.193207 87.008499,416.051208 
	C87.008492,416.051239 86.968979,416.046967 86.920616,415.687714 
	C82.398300,412.129395 77.933899,408.916870 73.446312,405.737030 
	C71.242737,404.175598 68.996201,402.674805 66.769104,401.146576 
	C66.614304,401.066101 66.459518,400.985596 66.058319,400.631836 
	C65.811913,400.358521 65.428055,400.104370 65.428055,400.104370 
	C62.286293,394.981842 59.144524,389.859314 55.985214,383.967194 
	C54.857346,380.125885 53.747021,377.054138 52.636696,373.982422 
	C52.477234,373.545898 52.317776,373.109344 52.346031,372.209839 
	C52.752975,371.536377 52.905266,371.285309 53.300873,371.034760 
	C54.422577,371.541534 55.234020,372.007202 55.947037,372.416382 
	C55.924381,372.446869 56.462116,371.723419 57.270134,371.228943 
	C58.077442,372.921234 58.614471,374.384552 59.244774,376.102081 
	C62.822262,374.386169 64.759132,371.182343 61.827202,369.598694 
	C58.366966,367.729645 59.036453,365.526154 59.035206,363.125824 
	C58.992390,280.854614 58.999474,198.583359 58.999386,116.312111 
	C58.999386,114.408218 58.999390,112.504333 58.999390,110.038940 
	C57.156830,111.404099 56.078796,112.202812 54.654327,113.000198 
	C53.845104,112.990494 53.382313,112.982117 52.931213,112.540779 
	C52.999435,108.081581 53.055962,104.055344 53.112484,100.029106 
	C53.189270,99.526031 53.266056,99.022957 53.589867,98.068291 
	C53.939213,97.451393 53.991798,97.271492 53.994648,97.076996 
	C53.994648,97.076996 53.972965,97.012245 54.359138,96.929520 
	C55.409206,94.766731 56.073101,92.686653 56.736992,90.606575 
	C56.736988,90.606575 56.759789,90.264648 57.107201,89.957619 
	C57.608692,89.074020 57.762772,88.497452 57.916855,87.920891 
M284.190491,137.694931 
	C272.527405,131.996246 260.898682,126.225891 249.193527,120.615005 
	C229.652710,111.248100 209.977386,111.148232 190.579758,120.776459 
	C164.792877,133.576050 139.184753,146.736008 113.513054,159.767212 
	C105.103256,164.036102 97.665970,169.581146 91.950233,177.161575 
	C82.078140,190.254272 77.180153,204.598236 77.619576,221.454605 
	C78.470451,254.094543 77.907906,286.770325 78.014969,319.430969 
	C78.092224,342.996918 95.871460,360.922943 119.354782,360.943878 
	C129.659943,360.953064 139.969040,360.081116 150.269531,360.199860 
	C155.020706,360.254608 157.812378,357.889191 160.982788,355.078796 
	C172.649780,344.736603 184.177933,334.188110 196.435806,324.581726 
	C203.307465,319.196411 212.040939,317.347931 220.466278,321.101898 
	C230.511932,325.577789 233.508438,331.112427 229.537964,340.762817 
	C227.770325,345.059143 225.328384,349.074860 223.266098,353.254303 
	C221.986786,355.846985 220.845627,358.507843 219.223221,362.054626 
	C222.163269,362.054626 223.943649,362.070129 225.723679,362.052338 
	C258.026947,361.729279 290.329712,361.317902 322.633789,361.133820 
	C330.953644,361.086365 338.414551,358.655029 345.165466,354.154785 
	C358.565338,345.222290 364.657043,332.136047 364.765930,316.408112 
	C364.892700,298.104218 364.278625,279.796204 364.104950,261.488861 
	C363.972168,247.492416 364.041473,233.494125 363.972931,219.496918 
	C363.964050,217.680161 363.761841,215.850723 363.491119,214.050949 
	C360.075989,191.349258 348.089844,174.080566 329.878204,160.101303 
	C329.925568,156.683365 330.011261,153.265442 330.011993,149.847488 
	C330.013367,143.597107 330.045990,137.344894 329.903778,131.097107 
	C329.827881,127.762230 324.680237,122.528206 321.512451,122.569695 
	C312.079651,122.693214 302.646515,122.891121 293.218079,123.199951 
	C288.907379,123.341141 285.301056,127.147980 285.051941,131.503128 
	C284.928955,133.653107 284.903107,135.808640 284.190491,137.694931 
M69.999855,299.379669 
	C69.666679,305.316803 69.267982,311.251251 69.021118,317.191956 
	C68.824921,321.913330 71.592239,324.979736 74.864456,327.934418 
	C74.864456,304.194733 74.864456,280.892731 74.864456,257.590759 
	C74.330383,257.535767 73.796318,257.480774 73.262245,257.425781 
	C72.845650,258.759308 72.139709,260.075287 72.057625,261.429138 
	C71.309883,273.762115 70.670830,286.101715 69.999855,299.379669 
z"/>
<path fill="#476471" opacity="1.000000" stroke="none" 
	d="
M1118.561035,54.818520 
	C1117.309326,55.280357 1115.596313,55.956779 1113.882935,55.957119 
	C877.586914,56.004116 641.290833,56.002609 404.994812,55.984100 
	C403.519531,55.983986 402.044281,55.715645 400.282043,55.266399 
	C401.485046,54.864174 402.975006,54.684013 404.464996,54.683941 
	C641.843750,54.672554 879.222473,54.674091 1116.601196,54.676895 
	C1117.100708,54.676899 1117.600098,54.703335 1118.561035,54.818520 
z"/>
<path fill="#86B0BF" opacity="1.000000" stroke="none" 
	d="
M396.848572,62.945683 
	C394.818268,55.973553 394.818268,55.966702 386.949799,55.966560 
	C296.094025,55.964897 205.238251,55.955471 114.382477,55.992760 
	C109.451218,55.994781 104.520126,56.392567 99.328049,56.338394 
	C103.321686,55.447651 107.575279,54.287941 111.830894,54.280506 
	C206.323380,54.115421 300.816101,54.077370 395.308777,54.022915 
	C395.635925,54.022728 395.963135,54.134941 396.625183,54.423637 
	C396.983032,54.875122 397.006042,55.097626 397.004944,56.089676 
	C396.936768,58.888042 396.892670,60.916862 396.848572,62.945683 
z"/>
<path fill="#4A6472" opacity="1.000000" stroke="none" 
	d="
M1165.405762,392.771942 
	C1165.097290,389.898071 1165.008301,386.739136 1165.008057,383.580170 
	C1164.999878,290.309875 1165.000610,197.039551 1165.000610,103.769249 
	C1165.000610,102.270294 1164.896851,100.758568 1165.063843,99.277885 
	C1165.145386,98.556496 1165.740479,97.893112 1166.490234,97.102737 
	C1166.945312,98.661240 1167.072388,100.320503 1167.072510,101.979759 
	C1167.077759,194.367279 1167.091797,286.754852 1167.008545,379.142273 
	C1167.004517,383.590851 1166.133667,388.038666 1165.405762,392.771942 
z"/>
<path fill="#86B0BF" opacity="1.000000" stroke="none" 
	d="
M103.414642,420.967102 
	C104.771309,420.575562 106.528519,420.066010 108.285950,420.065277 
	C201.909485,420.026337 295.533020,420.036682 389.156555,419.992615 
	C391.441345,419.991547 393.725830,419.435242 396.404510,419.063599 
	C396.900574,419.650452 397.002625,420.311584 397.151550,421.303864 
	C394.885986,421.785675 392.573608,422.067596 390.261139,422.068115 
	C305.900970,422.086975 221.540756,422.115906 137.180664,422.032166 
	C126.058563,422.021149 114.937065,421.416321 103.414642,420.967102 
z"/>
<path fill="#86B0BF" opacity="1.000000" stroke="none" 
	d="
M52.939919,100.377136 
	C53.055962,104.055344 52.999435,108.081581 52.643948,112.843697 
	C52.216152,114.892868 51.974648,116.206154 51.974586,117.519455 
	C51.970684,199.677597 51.986477,281.835724 51.793201,364.001221 
	C51.585934,364.008606 51.171272,364.019226 51.171272,364.019226 
	C51.085361,362.196045 50.924515,360.372833 50.924313,358.549652 
	C50.915340,277.863373 50.886143,197.177032 51.003082,116.490913 
	C51.010700,111.234825 52.152916,105.980377 52.939919,100.377136 
z"/>
<path fill="#86B0BF" opacity="1.000000" stroke="none" 
	d="
M66.869476,401.470184 
	C68.996201,402.674805 71.242737,404.175598 73.446312,405.737030 
	C77.933899,408.916870 82.398300,412.129395 86.907150,415.673096 
	C78.936005,413.170105 72.443855,408.196747 66.869476,401.470184 
z"/>
<path fill="#86B0BF" opacity="1.000000" stroke="none" 
	d="
M96.639755,56.394173 
	C94.810242,57.637032 92.666405,58.928703 90.423798,60.016796 
	C86.207436,62.062527 81.934044,63.990711 77.307037,65.940079 
	C83.380089,62.725285 89.830475,59.538189 96.639755,56.394173 
z"/>
<path fill="#4A6472" opacity="1.000000" stroke="none" 
	d="
M1162.113647,75.587967 
	C1158.367310,73.699387 1155.153198,70.962288 1154.226929,66.019562 
	C1156.896729,68.854973 1159.472534,72.048759 1162.113647,75.587967 
z"/>
<path fill="#4A6472" opacity="1.000000" stroke="none" 
	d="
M1166.931396,94.569199 
	C1166.086914,91.474663 1165.312744,87.949532 1164.846680,84.178436 
	C1165.770264,87.334526 1166.386108,90.736565 1166.931396,94.569199 
z"/>
<path fill="#476471" opacity="1.000000" stroke="none" 
	d="
M1132.519165,55.071144 
	C1129.111084,57.072704 1125.225830,58.384621 1121.077148,55.325211 
	C1124.688599,54.945648 1128.378906,54.958782 1132.519165,55.071144 
z"/>
<path fill="#86B0BF" opacity="1.000000" stroke="none" 
	d="
M90.811935,417.541992 
	C93.957413,418.149231 97.366463,419.017303 100.893906,420.189880 
	C97.700035,419.597229 94.387772,418.700043 90.811935,417.541992 
z"/>
<path fill="#86B0BF" opacity="1.000000" stroke="none" 
	d="
M52.608795,374.337524 
	C53.747021,377.054138 54.857346,380.125885 55.928558,383.610077 
	C54.786598,380.912567 53.683746,377.802582 52.608795,374.337524 
z"/>
<path fill="#86B0BF" opacity="1.000000" stroke="none" 
	d="
M72.292023,69.705231 
	C70.619820,71.741959 68.618187,73.822708 66.269829,75.899139 
	C67.936272,73.846298 69.949432,71.797775 72.292023,69.705231 
z"/>
<path fill="#86B0BF" opacity="1.000000" stroke="none" 
	d="
M64.423264,77.705856 
	C63.975883,78.965736 63.226955,80.372856 62.084740,81.686516 
	C62.501545,80.346405 63.311634,79.099754 64.423264,77.705856 
z"/>
<path fill="#57B2CD" opacity="1.000000" stroke="none" 
	d="
M51.140213,364.438477 
	C51.171272,364.019226 51.585934,364.008606 52.074097,364.254761 
	C52.692928,366.029449 52.823597,367.557983 52.745235,369.071777 
	C52.263412,369.008698 51.988876,368.974182 51.712605,368.953522 
	C51.511456,367.588257 51.310307,366.223022 51.140213,364.438477 
z"/>
<path fill="#86B0BF" opacity="1.000000" stroke="none" 
	d="
M76.591354,65.972977 
	C75.745781,67.203888 74.578049,68.493942 73.054756,69.655525 
	C73.889191,68.362068 75.079193,67.197098 76.591354,65.972977 
z"/>
<path fill="#86B0BF" opacity="1.000000" stroke="none" 
	d="
M56.471214,90.842239 
	C56.073101,92.686653 55.409206,94.766731 54.390400,96.915802 
	C54.758804,95.015839 55.482121,93.046875 56.471214,90.842239 
z"/>
<path fill="#86B0BF" opacity="1.000000" stroke="none" 
	d="
M61.329918,81.850937 
	C61.304890,82.452538 61.010544,83.166130 60.387482,83.926682 
	C60.392708,83.303398 60.726654,82.633163 61.329918,81.850937 
z"/>
<path fill="#86B0BF" opacity="1.000000" stroke="none" 
	d="
M51.648705,369.255249 
	C51.988876,368.974182 52.263412,369.008698 52.749237,369.388641 
	C52.971718,370.144714 52.981167,370.569183 52.990616,370.993652 
	C52.905266,371.285309 52.752975,371.536377 52.342514,371.858276 
	C51.962460,371.165497 51.773632,370.361237 51.648705,369.255249 
z"/>
<path fill="#86B0BF" opacity="1.000000" stroke="none" 
	d="
M59.509048,84.871567 
	C59.588169,85.327202 59.413326,85.971619 58.894344,86.709824 
	C58.785168,86.222527 59.020130,85.641434 59.509048,84.871567 
z"/>
<path fill="#86B0BF" opacity="1.000000" stroke="none" 
	d="
M87.183968,416.276428 
	C87.552010,416.193207 88.095520,416.335205 88.802231,416.715302 
	C88.430107,416.802795 87.894775,416.652222 87.183968,416.276428 
z"/>
<path fill="#4A6472" opacity="1.000000" stroke="none" 
	d="
M1164.049072,79.668221 
	C1163.721680,79.462029 1163.397339,78.934128 1163.081787,78.076340 
	C1163.411011,78.279808 1163.731567,78.813164 1164.049072,79.668221 
z"/>
<path fill="#86B0BF" opacity="1.000000" stroke="none" 
	d="
M57.670692,88.094711 
	C57.762772,88.497452 57.608692,89.074020 57.187714,89.806374 
	C57.088722,89.397614 57.256626,88.833076 57.670692,88.094711 
z"/>
<path fill="#86B0BF" opacity="1.000000" stroke="none" 
	d="
M53.842697,97.156082 
	C53.991798,97.271492 53.939213,97.451393 53.747070,97.718643 
	C53.448246,97.613075 53.459408,97.417938 53.842697,97.156082 
z"/>
<path fill="#4A6472" opacity="1.000000" stroke="none" 
	d="
M1154.235474,65.506592 
	C1153.983643,65.603165 1153.632812,65.416977 1153.195557,64.933105 
	C1153.451416,64.831566 1153.794067,65.027702 1154.235474,65.506592 
z"/>
<path fill="#86B0BF" opacity="1.000000" stroke="none" 
	d="
M65.412674,400.253296 
	C65.428055,400.104370 65.811913,400.358521 65.859222,400.461975 
	C65.906540,400.565430 65.611473,400.609161 65.611473,400.609161 
	C65.611473,400.609161 65.397301,400.402252 65.412674,400.253296 
z"/>
<path fill="#EFF1F4" opacity="1.000000" stroke="none" 
	d="
M950.954712,281.901825 
	C949.024963,284.237488 947.652710,283.909149 945.943298,281.965210 
	C942.341309,277.869110 938.519958,273.965973 934.346863,269.512238 
	C933.769043,271.633789 933.363220,273.123688 932.975647,274.546661 
	C928.756287,274.017578 924.687012,273.112946 920.608459,273.069000 
	C907.834778,272.931366 899.310120,280.698608 898.906311,293.478577 
	C898.427856,308.627533 898.681030,323.799652 898.619385,338.961731 
	C898.612000,340.768372 898.618408,342.575073 898.618408,344.685425 
	C887.629883,344.685425 877.068054,344.685425 866.210266,344.685425 
	C866.210266,312.082947 866.210266,279.536377 866.210266,246.475845 
	C875.541931,246.475845 884.672974,246.360962 893.793030,246.625763 
	C894.894592,246.657745 896.501099,248.582123 896.877502,249.911469 
	C897.483154,252.050278 897.258301,254.424240 897.457458,258.019958 
	C899.244629,256.117401 900.204956,255.170624 901.080505,254.151093 
	C908.386292,245.644150 921.993896,241.988617 932.521118,245.954102 
	C933.621338,246.368515 934.834229,248.135910 934.898438,249.334305 
	C935.080566,252.733231 934.694092,256.162659 934.500977,260.222260 
	C937.496155,258.063629 939.949707,256.128540 942.562317,254.439407 
	C960.731323,242.692688 980.044983,241.340240 999.776428,249.381348 
	C1012.774963,254.678589 1021.217834,265.020020 1021.855164,279.058350 
	C1022.841919,300.791718 1022.115417,322.602905 1022.115417,344.694489 
	C1012.335876,344.694489 1002.274780,344.694489 992.004700,344.694489 
	C991.855774,342.120422 991.716614,339.714813 991.548706,336.812866 
	C990.611816,337.311096 989.985596,337.479279 989.591858,337.877411 
	C976.803894,350.806274 953.285400,348.824554 940.936096,340.023743 
	C925.509827,329.030121 924.788208,307.330658 939.562195,295.385956 
	C949.407410,287.426208 961.056946,285.160004 973.340088,285.621063 
	C978.640259,285.819946 983.914490,286.708771 989.213318,287.285583 
	C990.499390,281.872803 987.742371,277.140503 981.407410,275.077972 
	C970.144287,271.411011 960.087158,273.985138 950.954712,281.901825 
M964.082825,308.442444 
	C959.705688,312.383636 959.094543,316.646606 962.350952,320.523132 
	C965.944031,324.800446 974.205322,325.844757 980.848816,322.861359 
	C986.944397,320.124023 990.411072,314.006104 989.331726,307.591003 
	C981.142212,305.656982 972.917847,303.944855 964.082825,308.442444 
z"/>
<path fill="#59B3D0" opacity="1.000000" stroke="none" 
	d="
M509.255341,250.656860 
	C524.789124,260.567047 531.131165,275.152802 531.949890,292.517059 
	C532.607788,306.470093 529.985107,319.596222 520.859863,330.830292 
	C509.694397,344.576141 494.943298,348.944366 478.137848,346.325409 
	C471.098358,345.228363 464.406372,341.901245 457.280975,339.494995 
	C457.135651,340.619659 456.894928,342.482483 456.612946,344.664337 
	C446.238586,344.664337 435.997986,344.664337 425.375671,344.664337 
	C425.375671,296.989288 425.375671,249.438278 425.375671,201.425415 
	C435.524597,201.425415 445.746796,201.425415 456.714539,201.425415 
	C456.714539,218.918503 456.714539,236.573547 456.714539,255.006592 
	C473.848206,242.413116 491.023346,241.375092 509.255341,250.656860 
M459.450012,285.189178 
	C458.769470,287.563171 457.924561,289.903992 457.437073,292.317017 
	C455.413666,302.332306 461.572083,313.372070 471.001862,316.819366 
	C480.317505,320.224915 491.575500,316.004852 496.348450,307.318298 
	C501.638763,297.690002 499.306641,284.417816 491.556610,278.281342 
	C483.136688,271.614410 466.404205,271.613190 459.450012,285.189178 
z"/>
<path fill="#5AB3D0" opacity="1.000000" stroke="none" 
	d="
M809.192749,259.192688 
	C816.594238,248.653793 826.326965,245.223450 838.681396,246.709274 
	C846.382446,247.635483 854.285583,246.881424 863.318726,246.881424 
	C861.476624,248.896393 860.376038,250.203751 859.169128,251.404312 
	C847.953613,262.561493 836.806641,273.790161 825.429565,284.780518 
	C822.625793,287.489014 822.664307,289.559174 824.887451,292.401062 
	C837.785278,308.888367 850.611755,325.431519 863.453735,341.962494 
	C863.944458,342.594147 864.346130,343.295013 865.244385,344.650146 
	C863.114075,344.792877 861.564758,344.982758 860.014954,344.986542 
	C850.015686,345.010895 840.012024,344.830963 830.019104,345.084259 
	C826.713562,345.168060 824.904602,343.912659 823.138123,341.363556 
	C815.671204,330.588287 808.027466,319.935455 800.173584,308.850037 
	C795.101074,313.059235 790.045654,316.380402 790.906067,324.185699 
	C791.630554,330.757385 791.055115,337.472351 791.055115,344.562469 
	C780.343079,344.562469 769.976501,344.562469 759.247009,344.562469 
	C759.247009,296.886108 759.247009,249.322769 759.247009,201.361038 
	C769.613342,201.361038 779.860413,201.361038 790.854370,201.361038 
	C790.854370,225.972061 790.854370,250.657974 790.854370,275.343872 
	C791.334839,275.592438 791.815247,275.841003 792.295715,276.089600 
	C797.845398,270.541290 803.395020,264.992981 809.192749,259.192688 
z"/>
<path fill="#F0F1F4" opacity="1.000000" stroke="none" 
	d="
M1026.421021,246.462219 
	C1030.829224,246.451553 1034.778687,246.451553 1039.239502,246.451553 
	C1039.239502,235.810501 1039.239502,225.728149 1039.239502,215.327026 
	C1049.979614,215.327026 1060.197510,215.327026 1070.876709,215.327026 
	C1070.876709,225.439499 1070.876709,235.521576 1070.876709,246.249191 
	C1081.010498,246.249191 1090.718872,246.249191 1100.710205,246.249191 
	C1100.710205,255.457275 1100.710205,264.015686 1100.710205,273.013611 
	C1091.337769,273.013611 1082.086548,273.013611 1072.057129,273.013611 
	C1072.057129,277.516602 1072.053711,281.599823 1072.057983,285.683044 
	C1072.065063,292.344940 1071.897583,299.013214 1072.133301,305.667114 
	C1072.420532,313.774200 1076.675537,318.188232 1084.684937,318.004517 
	C1090.404419,317.873352 1096.097778,316.593597 1102.430420,315.741943 
	C1103.109375,323.389282 1103.939209,331.574677 1104.423218,339.780396 
	C1104.478638,340.719086 1102.778687,342.279724 1101.592651,342.694641 
	C1086.558960,347.954376 1071.331055,349.651184 1056.546875,342.378723 
	C1043.458984,335.940674 1039.642334,323.847748 1039.391235,310.318451 
	C1039.166016,298.182770 1039.343750,286.039612 1039.343750,273.416321 
	C1034.192993,273.416321 1029.433838,273.416321 1023.960205,273.416321 
	C1023.960205,264.696991 1023.919861,256.443268 1024.046387,248.192078 
	C1024.055420,247.609329 1025.294922,247.045486 1026.421021,246.462219 
z"/>
<path fill="#5AB3D0" opacity="1.000000" stroke="none" 
	d="
M690.203369,344.970917 
	C678.129517,341.323090 668.382019,335.075256 661.930847,324.447327 
	C651.769775,307.707581 650.706421,290.199554 659.031799,272.602020 
	C672.787170,243.527054 711.294006,237.054016 735.813293,253.192245 
	C741.595642,256.998169 745.920044,263.075287 750.673401,268.326477 
	C751.364807,269.090240 751.278442,271.861603 750.572632,272.386200 
	C743.016785,278.002045 735.263733,283.352478 727.152710,289.065948 
	C724.442810,282.839783 720.597229,278.385895 714.414490,276.064758 
	C706.705383,273.170563 697.844910,274.812347 691.782471,280.762421 
	C686.356750,286.087616 684.114990,297.325928 687.448242,304.507019 
	C691.070190,312.309937 696.936340,316.840790 706.030090,317.147461 
	C714.918518,317.447266 720.790710,312.857330 725.705322,306.421265 
	C727.317749,304.309753 728.430847,303.396118 730.857605,305.227692 
	C737.864807,310.516327 744.987427,315.651886 752.001587,320.801208 
	C742.407654,340.481110 716.661621,352.008148 690.203369,344.970917 
z"/>
<path fill="#5AB3D0" opacity="1.000000" stroke="none" 
	d="
M608.795654,263.602692 
	C608.363159,267.500641 607.987244,270.939880 607.594666,274.531616 
	C603.767151,274.013336 600.052856,273.154175 596.320740,273.068176 
	C582.034424,272.739166 573.135742,281.400146 573.046936,295.667999 
	C572.946533,311.801483 573.023804,327.936127 573.023804,344.537659 
	C562.063599,344.537659 551.396240,344.537659 540.345703,344.537659 
	C540.249023,342.821777 540.079529,341.206787 540.078735,339.591736 
	C540.064514,310.467621 540.139709,281.343109 539.991821,252.219757 
	C539.971436,248.203690 540.917053,246.618942 545.221069,246.784531 
	C553.508118,247.103333 561.816162,246.877441 570.554993,246.877441 
	C571.189392,250.717804 571.774170,254.257584 572.291138,257.386993 
	C575.197266,254.701065 578.134216,251.389328 581.640869,248.870956 
	C588.797302,243.731369 597.104187,244.562622 605.243774,245.347672 
	C608.207581,245.633545 609.860718,246.994278 609.267639,250.686874 
	C608.613953,254.756470 608.948364,258.984802 608.795654,263.602692 
z"/>
<path fill="#5AB3D0" opacity="1.000000" stroke="none" 
	d="
M645.943848,268.000122 
	C645.943787,293.775482 645.943787,319.050842 645.943787,344.663940 
	C634.818359,344.663940 624.260010,344.663940 613.343262,344.663940 
	C613.343262,312.269897 613.343262,280.041504 613.343262,246.880753 
	C618.926575,246.880753 624.505554,246.781036 630.079285,246.910141 
	C635.173950,247.028152 641.880493,245.566208 644.862671,248.205780 
	C647.429993,250.478134 645.763733,257.551270 645.934937,262.502899 
	C645.992432,264.166779 645.944031,265.834290 645.943848,268.000122 
z"/>
<path fill="#5AB2CF" opacity="1.000000" stroke="none" 
	d="
M622.085327,233.437027 
	C614.060669,229.982880 610.799927,223.898315 611.061646,215.876007 
	C611.303711,208.453644 614.664673,202.959854 621.785400,200.017151 
	C627.526672,197.644531 637.417175,199.296860 641.911499,203.561844 
	C646.791565,208.192871 648.359985,217.311050 645.245422,224.410034 
	C642.246155,231.246277 636.740601,234.302811 629.376953,234.102859 
	C627.068542,234.040161 624.765686,233.775940 622.085327,233.437027 
z"/>
<path fill="#316A80" opacity="1.000000" stroke="none" 
	d="
M396.903564,63.417023 
	C396.892670,60.916862 396.936768,58.888042 397.028748,56.424362 
	C397.625977,56.794361 398.651642,57.605328 398.641418,58.403015 
	C398.599152,61.697750 398.033569,64.988380 398.032532,68.280640 
	C397.995972,182.474365 398.003143,296.668091 397.993530,410.861816 
	C397.993317,413.528198 397.872406,416.194550 397.467224,418.944702 
	C397.083954,416.699249 397.004181,414.369965 397.003815,412.040710 
	C396.984436,295.989929 396.971893,179.939148 396.903564,63.417023 
z"/>
<path fill="#3E687F" opacity="1.000000" stroke="none" 
	d="
M329.713135,160.876862 
	C348.089844,174.080566 360.075989,191.349258 363.491119,214.050949 
	C363.761841,215.850723 363.964050,217.680161 363.972931,219.496918 
	C364.041473,233.494125 363.972168,247.492416 364.104950,261.488861 
	C364.278625,279.796204 364.892700,298.104218 364.765930,316.408112 
	C364.657043,332.136047 358.565338,345.222290 345.165466,354.154785 
	C338.414551,358.655029 330.953644,361.086365 322.633789,361.133820 
	C290.329712,361.317902 258.026947,361.729279 225.723679,362.052338 
	C223.943649,362.070129 222.163269,362.054626 219.223221,362.054626 
	C220.845627,358.507843 221.986786,355.846985 223.266098,353.254303 
	C225.328384,349.074860 227.770325,345.059143 229.537964,340.762817 
	C233.508438,331.112427 230.511932,325.577789 220.466278,321.101898 
	C212.040939,317.347931 203.307465,319.196411 196.435806,324.581726 
	C184.177933,334.188110 172.649780,344.736603 160.982788,355.078796 
	C157.812378,357.889191 155.020706,360.254608 150.269531,360.199860 
	C139.969040,360.081116 129.659943,360.953064 119.354782,360.943878 
	C95.871460,360.922943 78.092224,342.996918 78.014969,319.430969 
	C77.907906,286.770325 78.470451,254.094543 77.619576,221.454605 
	C77.180153,204.598236 82.078140,190.254272 91.950233,177.161575 
	C97.665970,169.581146 105.103256,164.036102 113.513054,159.767212 
	C139.184753,146.736008 164.792877,133.576050 190.579758,120.776459 
	C209.977386,111.148232 229.652710,111.248100 249.193527,120.615005 
	C260.898682,126.225891 272.527405,131.996246 284.769836,138.075104 
	C300.137177,145.929123 314.925140,153.403000 329.713135,160.876862 
M102.845169,330.441254 
	C107.272110,336.599121 113.138329,339.481018 120.844742,339.062622 
	C127.657967,338.692688 134.528168,339.222321 141.320282,338.685333 
	C144.155502,338.461182 147.301208,337.056671 149.539352,335.243073 
	C161.291077,325.720520 172.170425,314.989990 184.553497,306.412476 
	C198.866287,296.498230 215.148453,293.805817 231.383835,302.120453 
	C246.295456,309.757141 255.435089,321.423187 252.669586,339.533997 
	C253.667252,339.733398 254.297546,339.971008 254.927094,339.969086 
	C277.252319,339.900330 299.582733,340.067871 321.900604,339.618530 
	C334.162872,339.371674 342.755157,329.856842 342.772980,317.314301 
	C342.815613,287.324951 342.796631,257.334625 342.593201,227.346100 
	C342.440643,204.855530 333.116211,187.261185 312.915924,176.745407 
	C288.591980,164.082932 263.909576,152.104050 239.295486,140.005920 
	C226.011017,133.476425 212.667969,133.913589 199.478729,140.613831 
	C175.164047,152.965866 150.918594,165.458969 126.474098,177.549179 
	C107.776237,186.797104 98.837868,201.555832 99.104874,222.319244 
	C99.522545,254.800049 99.648163,287.284698 100.108658,319.764740 
	C100.156250,323.121124 101.634727,326.457245 102.845169,330.441254 
z"/>
<path fill="#D67191" opacity="1.000000" stroke="none" 
	d="
M329.795654,160.489075 
	C314.925140,153.403000 300.137177,145.929123 285.091248,138.208466 
	C284.903107,135.808640 284.928955,133.653107 285.051941,131.503128 
	C285.301056,127.147980 288.907379,123.341141 293.218079,123.199951 
	C302.646515,122.891121 312.079651,122.693214 321.512451,122.569695 
	C324.680237,122.528206 329.827881,127.762230 329.903778,131.097107 
	C330.045990,137.344894 330.013367,143.597107 330.011993,149.847488 
	C330.011261,153.265442 329.925568,156.683365 329.795654,160.489075 
z"/>
<path fill="#55B5C9" opacity="1.000000" stroke="none" 
	d="
M55.000763,113.001526 
	C56.078796,112.202812 57.156830,111.404099 58.999390,110.038940 
	C58.999390,112.504333 58.999386,114.408218 58.999386,116.312111 
	C58.999474,198.583359 58.992390,280.854614 59.035206,363.125824 
	C59.036453,365.526154 58.366966,367.729645 61.827202,369.598694 
	C64.759132,371.182343 62.822262,374.386169 59.244774,376.102081 
	C58.614471,374.384552 58.077442,372.921234 57.217331,370.813721 
	C56.262680,362.260406 55.096310,354.352173 55.082397,346.441895 
	C54.945587,268.628632 55.000355,190.815033 55.000763,113.001526 
z"/>
<path fill="#55B1D4" opacity="1.000000" stroke="none" 
	d="
M54.654327,113.000198 
	C55.000355,190.815033 54.945587,268.628632 55.082397,346.441895 
	C55.096310,354.352173 56.262680,362.260406 56.947044,370.584778 
	C56.462116,371.723419 55.924381,372.446869 55.947037,372.416382 
	C55.234020,372.007202 54.422577,371.541534 53.300873,371.034760 
	C52.981167,370.569183 52.971718,370.144714 52.958267,369.403381 
	C52.823597,367.557983 52.692928,366.029449 52.281364,364.247375 
	C51.986477,281.835724 51.970684,199.677597 51.974586,117.519455 
	C51.974648,116.206154 52.216152,114.892868 52.632256,113.276657 
	C53.382313,112.982117 53.845104,112.990494 54.654327,113.000198 
z"/>
<path fill="#55B3CB" opacity="1.000000" stroke="none" 
	d="
M69.999924,298.909515 
	C70.670830,286.101715 71.309883,273.762115 72.057625,261.429138 
	C72.139709,260.075287 72.845650,258.759308 73.262245,257.425781 
	C73.796318,257.480774 74.330383,257.535767 74.864456,257.590759 
	C74.864456,280.892731 74.864456,304.194733 74.864456,327.934418 
	C71.592239,324.979736 68.824921,321.913330 69.021118,317.191956 
	C69.267982,311.251251 69.666679,305.316803 69.999924,298.909515 
z"/>
<path fill="#47697E" opacity="1.000000" stroke="none" 
	d="
M964.414551,308.244232 
	C972.917847,303.944855 981.142212,305.656982 989.331726,307.591003 
	C990.411072,314.006104 986.944397,320.124023 980.848816,322.861359 
	C974.205322,325.844757 965.944031,324.800446 962.350952,320.523132 
	C959.094543,316.646606 959.705688,312.383636 964.414551,308.244232 
z"/>
<path fill="#406980" opacity="1.000000" stroke="none" 
	d="
M459.627014,284.847168 
	C466.404205,271.613190 483.136688,271.614410 491.556610,278.281342 
	C499.306641,284.417816 501.638763,297.690002 496.348450,307.318298 
	C491.575500,316.004852 480.317505,320.224915 471.001862,316.819366 
	C461.572083,313.372070 455.413666,302.332306 457.437073,292.317017 
	C457.924561,289.903992 458.769470,287.563171 459.627014,284.847168 
z"/>
<path fill="#F1F2F4" opacity="1.000000" stroke="none" 
	d="
M102.647217,330.122009 
	C101.634727,326.457245 100.156250,323.121124 100.108658,319.764740 
	C99.648163,287.284698 99.522545,254.800049 99.104874,222.319244 
	C98.837868,201.555832 107.776237,186.797104 126.474098,177.549179 
	C150.918594,165.458969 175.164047,152.965866 199.478729,140.613831 
	C212.667969,133.913589 226.011017,133.476425 239.295486,140.005920 
	C263.909576,152.104050 288.591980,164.082932 312.915924,176.745407 
	C333.116211,187.261185 342.440643,204.855530 342.593201,227.346100 
	C342.796631,257.334625 342.815613,287.324951 342.772980,317.314301 
	C342.755157,329.856842 334.162872,339.371674 321.900604,339.618530 
	C299.582733,340.067871 277.252319,339.900330 254.927094,339.969086 
	C254.297546,339.971008 253.667252,339.733398 252.669586,339.533997 
	C255.435089,321.423187 246.295456,309.757141 231.383835,302.120453 
	C215.148453,293.805817 198.866287,296.498230 184.553497,306.412476 
	C172.170425,314.989990 161.291077,325.720520 149.539352,335.243073 
	C147.301208,337.056671 144.155502,338.461182 141.320282,338.685333 
	C134.528168,339.222321 127.657967,338.692688 120.844742,339.062622 
	C113.138329,339.481018 107.272110,336.599121 102.647217,330.122009 
z"/>
</svg>